<svg id="Layer_1" data-name="Layer 1" xmlns="http://www.w3.org/2000/svg" viewBox="0 0 283.98 83.52"><defs><style>.cls-1{fill:#63cadc;}.cls-2{font-size:30.98px;fill:#f1f1f9;font-family:FuturaPT-ExtraBold, Futura PT;font-weight:800;}.cls-3{letter-spacing:0.01em;}.cls-4{letter-spacing:0.04em;}</style></defs><title>logo-svg</title><path class="cls-1" d="M77.46,63.34c-3.15-3.39-9-8.48-9-25.17A25.76,25.76,0,0,0,47.54,12.86V9.46a5.22,5.22,0,1,0-10.43,0v3.4A25.77,25.77,0,0,0,16.24,38.17c0,16.69-5.89,21.78-9,25.17a5.12,5.12,0,0,0-1.4,3.54A5.23,5.23,0,0,0,11,72.1h62.6a5.23,5.23,0,0,0,5.24-5.22,5.13,5.13,0,0,0-1.41-3.54Zm-60.66.93c3.47-4.56,7.25-12.13,7.27-26,0,0,0-.06,0-.09a18.27,18.27,0,0,1,36.54,0s0,.06,0,.09c0,13.89,3.8,21.45,7.26,26ZM42.33,87.76A10.44,10.44,0,0,0,52.76,77.32H31.89A10.45,10.45,0,0,0,42.33,87.76Z" transform="translate(-5.79 -4.24)"/><text class="cls-2" transform="translate(73.08 50.43)">DogA<tspan class="cls-3" x="84.99" y="0">l</tspan><tspan x="95.3" y="0">e</tspan><tspan class="cls-4" x="114.3" y="0">r</tspan><tspan x="129.26" y="0">t.app</tspan></text></svg>